{"title":"X-Men: Days of Future Past (2014) WEBRip [RUS]","uid":10797864,"size":2215780352,"categoryP":"video","categoryS":"movies","magnet":"?xt=urn:btih:95b6441dce9d233f1b1c14fe563202658616f765&amp;dn=+X-Men%3A+Days+of+Future+Past+%282014%29+WEBRip+%5BRUS%5D&amp;tr=udp%3A%2F%2Ftracker.openbittorrent.com%3A80&amp;tr=udp%3A%2F%2Fopen.demonii.com%3A1337&amp;tr=udp%3A%2F%2Ftracker.coppersurfer.tk%3A6969&amp;tr=udp%3A%2F%2Fexodus.desync.com%3A6969","seeders":2,"leechers":0,"uploader":"yfjfrj","files":1,"time":1408311120,"description":"The X-Men send Wolverine to the past in a desperate effort to change history and prevent an event that results in doom for both humans and mutants.\n\nMI:\nGeneral\nComplete name                            : D:moviesX-Men.Days.of.Future.Past.2014.Dt.WEBRip.2100MB.avi\nFormat                                   : AVI\nFormat/Info                              : Audio Video Interleave\nFormat profile                           : OpenDML\nFile size                                : 2.06 GiB\nDuration                                 : 2h 11mn\nOverall bit rate                         : 2 253 Kbps\nWriting application                      : VirtualDubMod 1.5.10.3 | www.virtualdub-fr.org || (build 2550/release)\nWriting library                          : VirtualDubMod build 2550/release\n\nVideo\nID                                       : 0\nFormat                                   : MPEG-4 Visual\nFormat profile                           : Advanced Simple@L5\nFormat settings, BVOP                    : 2\nFormat settings, QPel                    : No\nFormat settings, GMC                     : No warppoints\nFormat settings, Matrix                  : Default (MPEG)\nCodec ID                                 : XVID\nCodec ID/Hint                            : XviD\nDuration                                 : 2h 11mn\nBit rate                                 : 1 981 Kbps\nWidth                                    : 720 pixels\nHeight                                   : 400 pixels\nDisplay aspect ratio                     : 16:9\nFrame rate                               : 30.184 fps\nColor space                              : YUV\nChroma subsampling                       : 4:2:0\nBit depth                                : 8 bits\nScan type                                : Progressive\nCompression mode                         : Lossy\nBits/(Pixel*Frame)                       : 0.228\nStream size                              : 1.81 GiB (88%)\nWriting library                          : XviD 1.2.1 (UTC 2008-12-04)\n\nAudio\nID                                       : 1\nFormat                                   : AC-3\nFormat/Info                              : Audio Coding 3\nMode extension                           : CM (complete main)\nFormat settings, Endianness              : Big\nCodec ID                                 : 2000\nDuration                                 : 2h 11mn\nBit rate mode                            : Constant\nBit rate                                 : 256 Kbps\nChannel(s)                               : 2 channels\nChannel positions                        : Front: L R\nSampling rate                            : 48.0 KHz\nBit depth                                : 16 bits\nCompression mode                         : Lossy\nStream size                              : 240 MiB (11%)\nAlignment                                : Split accross interleaves\nInterleave, duration                     : 33 ms (1.00 video frame)\nInterleave, preload duration             : 500 ms\n\nScreens: &lt;a href=&quot;\nhttp://i5.imageban.ru/out/2014/08/17/d19fe739b6e867e94889c6bea3e6aa79.png&quot; rel=&quot;nofollow&quot; target=&quot;_NEW&quot;&gt;\nhttp://i5.imageban.ru/out/2014/08/17/d19fe739b6e867e94889c6bea3e6aa79.png&lt;/a&gt; &lt;a href=&quot;\nhttp://i6.imageban.ru/out/2014/08/17/d2eb3b14510dd85c8d0cc9ba9cb0abf2.png&quot; rel=&quot;nofollow&quot; target=&quot;_NEW&quot;&gt;\nhttp://i6.imageban.ru/out/2014/08/17/d2eb3b14510dd85c8d0cc9ba9cb0abf2.png&lt;/a&gt; &lt;a href=&quot;\nhttp://i4.imageban.ru/out/2014/08/17/f2479f2ab39504d17dede723d325dac0.png&quot; rel=&quot;nofollow&quot; target=&quot;_NEW&quot;&gt;\nhttp://i4.imageban.ru/out/2014/08/17/f2479f2ab39504d17dede723d325dac0.png&lt;/a&gt; &lt;a href=&quot;\nhttp://i4.imageban.ru/out/2014/08/17/fa038e06827620d581e154e616615460.png&quot; rel=&quot;nofollow&quot; target=&quot;_NEW&quot;&gt;\nhttp://i4.imageban.ru/out/2014/08/17/fa038e06827620d581e154e616615460.png&lt;/a&gt; &lt;a href=&quot;\nhttp://i4.imageban.ru/out/2014/08/17/ef30cff0ea9812263dd8adbf73bbd66a.png&quot; rel=&quot;nofollow&quot; target=&quot;_NEW&quot;&gt;\nhttp://i4.imageban.ru/out/2014/08/17/ef30cff0ea9812263dd8adbf73bbd66a.png&lt;/a&gt; &lt;a href=&quot;\nhttp://i1.imageban.ru/out/2014/08/17/ba2abd8164d42afafc8fa210286fb8fb.png&quot; rel=&quot;nofollow&quot; target=&quot;_NEW&quot;&gt;\nhttp://i1.imageban.ru/out/2014/08/17/ba2abd8164d42afafc8fa210286fb8fb.png&lt;/a&gt; &lt;a href=&quot;\nhttp://i5.imageban.ru/out/2014/08/17/6b5d547cb40ab07699ec488ec6a81688.png&quot; rel=&quot;nofollow&quot; target=&quot;_NEW&quot;&gt;\nhttp://i5.imageban.ru/out/2014/08/17/6b5d547cb40ab07699ec488ec6a81688.png&lt;/a&gt; &lt;a href=&quot;\nhttp://i4.imageban.ru/out/2014/08/17/d3c978ed230de40c38a29363c81d2ad9.png&quot; rel=&quot;nofollow&quot; target=&quot;_NEW&quot;&gt;\nhttp://i4.imageban.ru/out/2014/08/17/d3c978ed230de40c38a29363c81d2ad9.png&lt;/a&gt; &lt;a href=&quot;\nhttp://i6.imageban.ru/out/2014/08/17/7763bf140c7aae797452271df4e18583.png&quot; rel=&quot;nofollow&quot; target=&quot;_NEW&quot;&gt;\nhttp://i6.imageban.ru/out/2014/08/17/7763bf140c7aae797452271df4e18583.png&lt;/a&gt; &lt;a href=&quot;\nhttp://i1.imageban.ru/out/2014/08/17/bd495bd7a5ac5ba1423b0792d5cd5c21.png&quot; rel=&quot;nofollow&quot; target=&quot;_NEW&quot;&gt;\nhttp://i1.imageban.ru/out/2014/08/17/bd495bd7a5ac5ba1423b0792d5cd5c21.png&lt;/a&gt; &lt;a href=&quot;\nhttp://i4.imageban.ru/out/2014/08/17/8ed37b7f2d9b4d0d5ae55640785bbefe.png&quot; rel=&quot;nofollow&quot; target=&quot;_NEW&quot;&gt;\nhttp://i4.imageban.ru/out/2014/08/17/8ed37b7f2d9b4d0d5ae55640785bbefe.png&lt;/a&gt; &lt;a href=&quot;\nhttp://i4.imageban.ru/out/2014/08/17/23da8375f4df7220cff004cdc4e93014.png&quot; rel=&quot;nofollow&quot; target=&quot;_NEW&quot;&gt;\nhttp://i4.imageban.ru/out/2014/08/17/23da8375f4df7220cff004cdc4e93014.png&lt;/a&gt; &lt;a href=&quot;\nhttp://i4.imageban.ru/out/2014/08/17/b45be0617c009c37cbcc5f284ab3cc19.png&quot; rel=&quot;nofollow&quot; target=&quot;_NEW&quot;&gt;\nhttp://i4.imageban.ru/out/2014/08/17/b45be0617c009c37cbcc5f284ab3cc19.png&lt;/a&gt;\n\nSample:\n","torrent":{"xt":"urn:btih:95b6441dce9d233f1b1c14fe563202658616f765","amp;dn":"+X-Men%3A+Days+of+Future+Past+%282014%29+WEBRip+%5BRUS%5D","amp;tr":["udp%3A%2F%2Ftracker.openbittorrent.com%3A80","udp%3A%2F%2Fopen.demonii.com%3A1337","udp%3A%2F%2Ftracker.coppersurfer.tk%3A6969","udp%3A%2F%2Fexodus.desync.com%3A6969"],"infoHash":"95b6441dce9d233f1b1c14fe563202658616f765","infoHashBuffer":{"type":"Buffer","data":[149,182,68,29,206,157,35,63,27,28,20,254,86,50,2,101,134,22,247,101]},"announce":[],"urlList":[]}}